<svg xmlns="http://www.w3.org/2000/svg" width="880" height="260" viewBox="0 0 880 260"
     font-family="-apple-system, BlinkMacSystemFont, Segoe UI, Helvetica, Arial, sans-serif"
     role="img" aria-label="Daily installs of taskuary from PyPI, mirrors excluded. 123 yesterday   ·   1,399 in the last 7 days   ·   7,159 in 30">
  <style>
    text { font-size: 11px; }
    .title { font-size: 13px; font-weight: 600; fill: #1f2328; }
    .dim   { fill: #59636e; }
    .key   { fill: #59636e; font-size: 10px; }
    .grid  { stroke: #d1d9e0; stroke-width: 1; }
    .line  { fill: none; stroke: #2a78d6; stroke-width: 2; stroke-linejoin: round; stroke-linecap: round; }
    .area  { fill: #2a78d6; fill-opacity: .14; stroke: none; }
    .dot   { fill: #2a78d6; }
    @media (prefers-color-scheme: dark) {
      .title { fill: #e6edf3; } .dim, .key { fill: #9198a1; } .grid { stroke: #2f3742; }
      .line, .dot { stroke: #3987e5; fill: #3987e5; } .line { fill: none; }
      .area { fill: #3987e5; fill-opacity: .18; }
    }
  </style>
  <text x="52" y="22" class="title">taskuary · installs from PyPI</text>
  <text x="52" y="38" class="dim">123 yesterday   ·   1,399 in the last 7 days   ·   7,159 in 30</text>
  <line x1="52" y1="230.0" x2="802" y2="230.0" class="grid"/><text x="42" y="233.5" class="dim" text-anchor="end">0</text><line x1="52" y1="141.0" x2="802" y2="141.0" class="grid"/><text x="42" y="144.5" class="dim" text-anchor="end">375</text><line x1="52" y1="52.0" x2="802" y2="52.0" class="grid"/><text x="42" y="55.5" class="dim" text-anchor="end">750</text>
  <path d="M52.0,230 L52.0,196.5 L68.7,226.0 L85.3,207.2 L102.0,226.0 L118.7,211.5 L135.3,222.2 L152.0,228.1 L168.7,174.0 L185.3,176.4 L202.0,107.1 L218.7,185.4 L235.3,107.1 L252.0,203.7 L268.7,226.0 L285.3,100.2 L302.0,169.0 L318.7,219.6 L335.3,115.1 L352.0,138.4 L368.7,219.3 L385.3,225.7 L402.0,160.0 L418.7,143.8 L435.3,122.5 L452.0,177.8 L468.7,122.7 L485.3,212.4 L502.0,132.9 L518.7,216.9 L535.3,165.9 L552.0,187.0 L568.7,124.9 L585.3,113.7 L602.0,207.9 L618.7,226.2 L635.3,169.2 L652.0,198.7 L668.7,151.4 L685.3,170.7 L702.0,169.2 L718.7,210.8 L735.3,212.7 L752.0,192.7 L768.7,147.4 L785.3,144.3 L802.0,200.8 L802.0,230 Z" class="area"/>
  <polyline points="52.0,196.5 68.7,211.3 85.3,209.9 102.0,213.9 118.7,213.4 135.3,214.9 152.0,216.8 168.7,213.6 185.3,206.5 202.0,192.2 218.7,186.4 235.3,171.4 252.0,168.8 268.7,168.5 285.3,158.0 302.0,156.9 318.7,173.0 335.3,162.9 352.0,167.4 368.7,169.6 385.3,169.6 402.0,178.2 418.7,174.6 435.3,160.7 452.0,169.6 468.7,167.4 485.3,166.4 502.0,153.2 518.7,161.3 535.3,164.5 552.0,173.7 568.7,166.1 585.3,164.8 602.0,164.2 618.7,177.5 635.3,170.7 652.0,175.4 668.7,170.3 685.3,176.8 702.0,184.8 718.7,185.2 735.3,183.2 752.0,186.6 768.7,179.3 785.3,178.3 802.0,182.6" class="line"/>
  <circle cx="802.0" cy="200.8" r="3.5" class="dot"/><text x="811.0" y="204.3" class="key">daily</text><text x="811.0" y="186.1" class="key">7-day mean</text>
  <text x="52.0" y="250" class="dim" text-anchor="middle">Aug 24</text><text x="202.0" y="250" class="dim" text-anchor="middle">Sep 2</text><text x="352.0" y="250" class="dim" text-anchor="middle">Sep 11</text><text x="502.0" y="250" class="dim" text-anchor="middle">Sep 20</text><text x="652.0" y="250" class="dim" text-anchor="middle">Sep 29</text><text x="802.0" y="250" class="dim" text-anchor="middle">Oct 8</text>
  <text x="802" y="22" class="dim" text-anchor="end">mirrors excluded</text>
</svg>
