<svg xmlns="http://www.w3.org/2000/svg" width="880" height="260" viewBox="0 0 880 260"
     font-family="-apple-system, BlinkMacSystemFont, Segoe UI, Helvetica, Arial, sans-serif"
     role="img" aria-label="Daily installs of taskuary from PyPI, mirrors excluded. 181 yesterday   ·   1,661 in the last 7 days   ·   6,616 in 30">
  <style>
    text { font-size: 11px; }
    .title { font-size: 13px; font-weight: 600; fill: #1f2328; }
    .dim   { fill: #59636e; }
    .key   { fill: #59636e; font-size: 10px; }
    .grid  { stroke: #d1d9e0; stroke-width: 1; }
    .line  { fill: none; stroke: #2a78d6; stroke-width: 2; stroke-linejoin: round; stroke-linecap: round; }
    .area  { fill: #2a78d6; fill-opacity: .14; stroke: none; }
    .dot   { fill: #2a78d6; }
    @media (prefers-color-scheme: dark) {
      .title { fill: #e6edf3; } .dim, .key { fill: #9198a1; } .grid { stroke: #2f3742; }
      .line, .dot { stroke: #3987e5; fill: #3987e5; } .line { fill: none; }
      .area { fill: #3987e5; fill-opacity: .18; }
    }
  </style>
  <text x="52" y="22" class="title">taskuary · installs from PyPI</text>
  <text x="52" y="38" class="dim">181 yesterday   ·   1,661 in the last 7 days   ·   6,616 in 30</text>
  <line x1="52" y1="230.0" x2="802" y2="230.0" class="grid"/><text x="42" y="233.5" class="dim" text-anchor="end">0</text><line x1="52" y1="141.0" x2="802" y2="141.0" class="grid"/><text x="42" y="144.5" class="dim" text-anchor="end">375</text><line x1="52" y1="52.0" x2="802" y2="52.0" class="grid"/><text x="42" y="55.5" class="dim" text-anchor="end">750</text>
  <path d="M52.0,230 L52.0,196.5 L77.0,226.0 L102.0,207.2 L127.0,226.0 L152.0,211.5 L177.0,222.2 L202.0,228.1 L227.0,174.0 L252.0,176.4 L277.0,107.1 L302.0,185.4 L327.0,107.1 L352.0,203.7 L377.0,226.0 L402.0,100.2 L427.0,169.0 L452.0,219.6 L477.0,115.1 L502.0,138.4 L527.0,219.3 L552.0,225.7 L577.0,160.0 L602.0,143.8 L627.0,122.5 L652.0,177.8 L677.0,122.7 L702.0,212.4 L727.0,132.9 L752.0,216.9 L777.0,165.9 L802.0,187.0 L802.0,230 Z" class="area"/>
  <polyline points="52.0,196.5 77.0,211.3 102.0,209.9 127.0,213.9 152.0,213.4 177.0,214.9 202.0,216.8 227.0,213.6 252.0,206.5 277.0,192.2 302.0,186.4 327.0,171.4 352.0,168.8 377.0,168.5 402.0,158.0 427.0,156.9 452.0,173.0 477.0,162.9 502.0,167.4 527.0,169.6 552.0,169.6 577.0,178.2 602.0,174.6 627.0,160.7 652.0,169.6 677.0,167.4 702.0,166.4 727.0,153.2 752.0,161.3 777.0,164.5 802.0,173.7" class="line"/>
  <circle cx="802.0" cy="187.0" r="3.5" class="dot"/><text x="811.0" y="190.5" class="key">daily</text><text x="811.0" y="177.2" class="key">7-day mean</text>
  <text x="52.0" y="250" class="dim" text-anchor="middle">Aug 24</text><text x="202.0" y="250" class="dim" text-anchor="middle">Aug 30</text><text x="352.0" y="250" class="dim" text-anchor="middle">Sep 5</text><text x="502.0" y="250" class="dim" text-anchor="middle">Sep 11</text><text x="652.0" y="250" class="dim" text-anchor="middle">Sep 17</text><text x="802.0" y="250" class="dim" text-anchor="middle">Sep 23</text>
  <text x="802" y="22" class="dim" text-anchor="end">mirrors excluded</text>
</svg>
